<svg width="1496" height="452" viewBox="0 0 1496 452" fill="none" xmlns="http://www.w3.org/2000/svg">
<g filter="url(#filter0_d_3_18)">
<path d="M87.1146 218.31C74.4042 218.31 64.1003 208.006 64.1003 195.296V153.934C64.1003 146.321 62.3617 138.808 59.017 131.968L12.3491 36.5391C4.93415 21.3767 15.9733 3.68976 32.8517 3.68976C41.7925 3.68976 49.9099 8.91038 53.6185 17.0457L70.2375 53.5014L86.3585 94.4838C86.6296 95.1729 87.2947 95.626 88.0352 95.626C88.7758 95.626 89.4409 95.1729 89.712 94.4838L105.833 53.5014L122.671 16.5659C126.246 8.72282 134.072 3.68976 142.691 3.68976C158.963 3.68976 169.606 20.7412 162.457 35.3589L115.212 131.968C111.868 138.808 110.129 146.321 110.129 153.934V195.296C110.129 208.006 99.8251 218.31 87.1146 218.31Z" fill="black"/>
<path d="M271.11 222C242.469 222 221.296 212.263 207.59 192.789C194.088 173.316 187.337 146.053 187.337 111C187.337 75.9474 194.088 48.6842 207.59 29.2105C221.296 9.73684 242.469 0 271.11 0C299.75 0 320.821 9.73684 334.322 29.2105C348.029 48.6842 354.882 75.9474 354.882 111C354.882 146.053 348.029 173.316 334.322 192.789C320.821 212.263 299.75 222 271.11 222ZM271.11 184.795C284.202 184.795 293.203 179.978 298.113 170.343C303.227 160.504 305.785 146.873 305.785 129.449V92.2438C305.785 75.0249 303.227 61.5983 298.113 51.964C293.203 42.1247 284.202 37.205 271.11 37.205C258.017 37.205 248.913 42.1247 243.799 51.964C238.889 61.5983 236.435 75.0249 236.435 92.2438V129.756C236.435 146.975 238.889 160.504 243.799 170.343C248.913 179.978 258.017 184.795 271.11 184.795Z" fill="black"/>
<path d="M402.939 3.68976C415.649 3.68976 425.953 13.9936 425.953 26.7041V139.596C425.953 146.36 426.158 152.612 426.567 158.352C427.18 163.886 428.408 168.601 430.249 172.496C432.295 176.391 435.261 179.465 439.148 181.72C443.035 183.77 448.354 184.795 455.104 184.795C461.855 184.795 467.174 183.77 471.061 181.72C474.948 179.465 477.812 176.391 479.653 172.496C481.699 168.601 482.926 163.886 483.335 158.352C483.949 152.612 484.256 146.36 484.256 139.596V26.7041C484.256 13.9936 494.56 3.68976 507.27 3.68976C519.981 3.68976 530.285 13.9936 530.285 26.7041V133.446C530.285 148.205 529.262 161.119 527.216 172.188C525.375 183.258 521.693 192.482 516.169 199.862C510.646 207.241 502.974 212.776 493.155 216.465C483.335 220.155 470.652 222 455.104 222C439.557 222 426.874 220.155 417.054 216.465C407.235 212.776 399.563 207.241 394.04 199.862C388.516 192.482 384.732 183.258 382.686 172.188C380.845 161.119 379.924 148.205 379.924 133.446V26.7041C379.924 13.9936 390.228 3.68976 402.939 3.68976Z" fill="black"/>
<path d="M601.463 110.76C582.034 110.76 566.285 95.0103 566.285 75.582V13.65C566.285 7.14521 571.558 1.872 578.063 1.872C584.568 1.872 589.841 7.1452 589.841 13.65V68.172C589.841 81.0955 600.317 91.572 613.241 91.572H627.047C632.345 91.572 636.641 95.8674 636.641 101.166C636.641 106.465 632.345 110.76 627.047 110.76H601.463Z" fill="black"/>
<path d="M692.272 112.632C677.712 112.632 666.948 107.692 659.98 97.812C653.116 87.932 649.684 74.1 649.684 56.316C649.684 38.532 653.116 24.7 659.98 14.82C666.948 4.94 677.712 0 692.272 0C706.832 0 717.544 4.94 724.408 14.82C731.376 24.7 734.86 38.532 734.86 56.316C734.86 74.1 731.376 87.932 724.408 97.812C717.544 107.692 706.832 112.632 692.272 112.632ZM692.272 93.756C698.928 93.756 703.504 91.312 706 86.424C708.6 81.432 709.9 74.516 709.9 65.676V46.8C709.9 38.064 708.6 31.252 706 26.364C703.504 21.372 698.928 18.876 692.272 18.876C685.616 18.876 680.988 21.372 678.388 26.364C675.892 31.252 674.644 38.064 674.644 46.8V65.832C674.644 74.568 675.892 81.432 678.388 86.424C680.988 91.312 685.616 93.756 692.272 93.756Z" fill="black"/>
<path d="M784.095 112.632C774.943 112.632 766.987 111.124 760.227 108.108C756.428 106.413 753.04 104.374 750.062 101.989C746.103 98.8188 746.351 93.0211 749.756 89.263C753.86 84.7353 760.901 84.9371 766.075 88.1878C767.47 89.0642 768.9 89.8282 770.367 90.48C775.151 92.56 779.987 93.6 784.875 93.6C790.491 93.6 794.755 92.352 797.667 89.856C800.579 87.36 802.035 83.772 802.035 79.092C802.035 75.244 800.891 72.332 798.603 70.356C796.419 68.38 792.675 66.976 787.371 66.144L775.983 64.272C766.207 62.608 759.135 59.02 754.767 53.508C750.399 47.892 748.215 41.08 748.215 33.072C748.215 22.568 751.647 14.456 758.511 8.736C765.375 2.912 774.995 0 787.371 0C795.795 0 803.127 1.3 809.367 3.9C812.564 5.23227 815.448 6.8103 818.017 8.6341C822.108 11.5382 821.997 17.3041 818.652 21.0432C814.691 25.4692 807.764 25.2936 802.482 22.5789C801.978 22.3199 801.465 22.0736 800.943 21.84C796.991 19.968 792.519 19.032 787.527 19.032C777.023 19.032 771.771 23.348 771.771 31.98C771.771 35.724 772.915 38.532 775.203 40.404C777.595 42.276 781.443 43.68 786.747 44.616L798.135 46.644C806.975 48.204 813.787 51.532 818.571 56.628C823.355 61.724 825.747 68.588 825.747 77.22C825.747 82.316 824.863 87.048 823.095 91.416C821.327 95.68 818.675 99.424 815.139 102.648C811.603 105.768 807.235 108.212 802.035 109.98C796.939 111.748 790.959 112.632 784.095 112.632Z" fill="black"/>
<path d="M906.728 21.06C898.069 21.06 891.05 28.0793 891.05 36.738V99.06C891.05 105.522 885.812 110.76 879.35 110.76C872.888 110.76 867.65 105.522 867.65 99.06V36.738C867.65 28.0793 860.631 21.06 851.972 21.06H845.888C840.589 21.06 836.294 16.7646 836.294 11.466C836.294 6.16738 840.589 1.872 845.888 1.872H912.812C918.111 1.872 922.406 6.16738 922.406 11.466C922.406 16.7646 918.111 21.06 912.812 21.06H906.728Z" fill="black"/>
<path d="M335.719 282.188C327.06 282.188 320.041 289.207 320.041 297.866V360.188C320.041 366.65 314.802 371.888 308.341 371.888C301.879 371.888 296.641 366.65 296.641 360.188V297.866C296.641 289.207 289.621 282.188 280.963 282.188H274.879C269.58 282.188 265.285 277.893 265.285 272.594C265.285 267.295 269.58 263 274.879 263H341.803C347.101 263 351.397 267.295 351.397 272.594C351.397 277.893 347.101 282.188 341.803 282.188H335.719Z" fill="black"/>
<path d="M415.608 340.064C415.608 332.482 409.462 326.336 401.88 326.336C394.298 326.336 388.152 332.482 388.152 340.064V360.11C388.152 366.615 382.879 371.888 376.374 371.888C369.869 371.888 364.596 366.615 364.596 360.11V274.778C364.596 268.273 369.869 263 376.374 263C382.879 263 388.152 268.273 388.152 274.778V293.42C388.152 301.002 394.298 307.148 401.88 307.148C409.462 307.148 415.608 301.002 415.608 293.42V274.778C415.608 268.273 420.881 263 427.386 263C433.891 263 439.164 268.273 439.164 274.778V360.11C439.164 366.615 433.891 371.888 427.386 371.888C420.881 371.888 415.608 366.615 415.608 360.11V340.064Z" fill="black"/>
<path d="M495.887 371.888C476.674 371.888 461.099 356.313 461.099 337.1V297.788C461.099 278.575 476.674 263 495.887 263H521.081C526.379 263 530.675 267.295 530.675 272.594C530.675 277.893 526.379 282.188 521.081 282.188H496.979C490.086 282.188 484.499 287.775 484.499 294.668C484.499 301.561 490.086 307.148 496.979 307.148H519.521C524.819 307.148 529.115 311.443 529.115 316.742C529.115 322.041 524.819 326.336 519.521 326.336H497.681C490.401 326.336 484.499 332.238 484.499 339.518C484.499 346.798 490.401 352.7 497.681 352.7H521.081C526.379 352.7 530.675 356.995 530.675 362.294C530.675 367.593 526.379 371.888 521.081 371.888H495.887Z" fill="black"/>
<path d="M708.831 381.139C708.831 379.932 707.853 378.954 706.646 378.954C705.759 378.954 704.962 379.492 704.614 380.308C702.289 385.769 699.502 390.999 696.254 395.999C692.738 401.41 688.41 406.279 683.271 410.608C678.132 414.666 672.046 417.913 665.014 420.348C658.252 422.783 650.544 424 641.889 424C628.095 424 615.788 420.753 604.97 414.26C594.421 407.767 585.496 398.298 578.193 385.853C570.89 373.408 565.346 358.258 561.559 340.402C558.043 322.546 556.285 302.39 556.285 279.935C556.285 231.778 565.075 194.984 582.656 169.553C600.236 143.851 627.419 131 664.203 131C678.808 131 691.656 133.029 702.745 137.087C713.834 140.875 723.301 146.421 731.145 153.726C739.259 160.76 745.885 169.282 751.024 179.292C751.91 181.017 752.763 182.775 753.585 184.564C760.414 199.442 750.288 215.705 734.381 219.569L723.864 222.124C714.139 224.486 704.432 218.615 700.716 209.323C698.823 203.641 696.254 198.636 693.008 194.307C689.762 189.979 685.705 186.597 680.837 184.162C675.968 181.457 670.018 180.104 662.986 180.104C647.569 180.104 636.615 186.462 630.123 199.177C623.903 211.893 620.792 229.749 620.792 252.745V299.008C620.792 322.005 624.173 340.402 630.935 354.199C637.967 367.997 650.274 374.896 667.854 374.896C681.648 374.896 691.926 370.838 698.688 362.722C705.45 354.605 708.831 344.189 708.831 331.474C708.831 320.043 699.564 310.777 688.134 310.777H682.06C670.181 310.777 660.551 301.147 660.551 289.269C660.551 277.39 670.181 267.76 682.06 267.76H711.873C713.101 267.76 713.715 267.76 714.234 267.771C741.035 268.328 762.628 289.921 763.185 316.722C763.195 317.241 763.195 317.855 763.195 319.082V391.948C763.195 406.96 751.025 419.13 736.013 419.13H728.919C717.824 419.13 708.831 410.137 708.831 399.042V381.139Z" fill="black"/>
<path d="M985.939 419.13C971.738 419.13 959.325 409.549 955.728 395.811L952.908 385.042C947.65 364.959 929.504 350.953 908.745 350.953H901.679C880.975 350.953 862.902 364.983 857.77 385.042L854.744 396.864C851.392 409.966 839.587 419.13 826.064 419.13C806.566 419.13 792.393 400.61 797.487 381.79L852.821 177.381C853.999 173.028 854.589 170.851 855.274 168.946C861.913 150.489 878.73 137.619 898.281 136.033C900.298 135.87 902.553 135.87 907.063 135.87C911.573 135.87 913.828 135.87 915.845 136.033C935.396 137.619 952.213 150.489 958.852 168.946C959.537 170.851 960.127 173.028 961.305 177.381L1016.08 379.74C1021.46 399.593 1006.51 419.13 985.939 419.13ZM907.468 196.285C907.23 195.36 906.395 194.713 905.44 194.713C904.485 194.713 903.651 195.36 903.413 196.285L883.514 273.561C879.824 287.89 890.644 301.849 905.44 301.849C920.236 301.849 931.056 287.89 927.367 273.561L907.468 196.285Z" fill="black"/>
<path d="M1203.48 292.921L1206.63 215.967C1206.68 214.778 1205.73 213.787 1204.54 213.787C1203.66 213.787 1202.87 214.339 1202.57 215.168L1192.39 243.292C1178.15 282.632 1122.51 282.632 1108.27 243.292L1098.09 215.168C1097.79 214.339 1097 213.787 1096.12 213.787C1094.93 213.787 1093.98 214.778 1094.03 215.967L1097.18 292.921V392.759C1097.18 407.324 1085.37 419.13 1070.81 419.13C1056.25 419.13 1044.44 407.324 1044.44 392.759V178.137C1044.44 154.793 1063.36 135.87 1086.71 135.87C1104.45 135.87 1120.3 146.951 1126.4 163.614L1150.58 229.713C1150.92 230.628 1151.79 231.237 1152.76 231.237C1153.74 231.237 1154.61 230.628 1154.94 229.713L1179.81 161.733C1185.5 146.2 1200.28 135.87 1216.82 135.87C1238.58 135.87 1256.22 153.51 1256.22 175.271V392.759C1256.22 407.324 1244.41 419.13 1229.85 419.13C1215.28 419.13 1203.48 407.324 1203.48 392.759V292.921Z" fill="black"/>
<path d="M1394.81 419.13C1356.86 419.13 1337.89 419.13 1324.65 409.362C1320.63 406.394 1317.08 402.84 1314.11 398.819C1304.34 385.582 1304.34 366.607 1304.34 328.657V226.343C1304.34 188.393 1304.34 169.418 1314.11 156.181C1317.08 152.16 1320.63 148.606 1324.65 145.638C1337.89 135.87 1356.86 135.87 1394.81 135.87H1460.33C1474.11 135.87 1485.28 147.044 1485.28 160.828C1485.28 174.611 1474.11 185.785 1460.33 185.785H1397.66C1379.73 185.785 1365.2 200.321 1365.2 218.251C1365.2 236.181 1379.73 250.716 1397.66 250.716H1456.27C1470.05 250.716 1481.23 261.89 1481.23 275.674C1481.23 289.458 1470.05 300.632 1456.27 300.632H1399.49C1380.55 300.632 1365.2 315.984 1365.2 334.923C1365.2 353.862 1380.55 369.215 1399.49 369.215H1460.33C1474.11 369.215 1485.28 380.389 1485.28 394.172C1485.28 407.956 1474.11 419.13 1460.33 419.13H1394.81Z" fill="black"/>
</g>
<defs>
<filter id="filter0_d_3_18" x="0" y="0" width="1495.28" height="452" filterUnits="userSpaceOnUse" color-interpolation-filters="sRGB">
<feFlood flood-opacity="0" result="BackgroundImageFix"/>
<feColorMatrix in="SourceAlpha" type="matrix" values="0 0 0 0 0 0 0 0 0 0 0 0 0 0 0 0 0 0 127 0" result="hardAlpha"/>
<feOffset dy="18"/>
<feGaussianBlur stdDeviation="5"/>
<feComposite in2="hardAlpha" operator="out"/>
<feColorMatrix type="matrix" values="0 0 0 0 0 0 0 0 0 0 0 0 0 0 0 0 0 0 0.25 0"/>
<feBlend mode="normal" in2="BackgroundImageFix" result="effect1_dropShadow_3_18"/>
<feBlend mode="normal" in="SourceGraphic" in2="effect1_dropShadow_3_18" result="shape"/>
</filter>
</defs>
</svg>
